<svg width="32" height="32" viewBox="0 0 32 32" fill="none" xmlns="http://www.w3.org/2000/svg">
<g clip-path="url(#clip0_1217_109086)">
<path d="M12.4368 8.83545C13.0556 8.91223 13.6695 9.1116 14.2434 9.44296C16.5392 10.7684 17.3258 13.7041 16.0004 15.9999C14.6749 13.7041 11.7392 12.9175 9.44344 14.243C8.87033 14.5739 8.39126 15.0051 8.01562 15.5017C8.19538 12.5763 9.9472 10.0762 12.4368 8.83545Z" fill="#FFD600"/>
<path d="M8.01526 15.5017C8.3909 15.0051 8.86996 14.5739 9.44308 14.243C11.7389 12.9175 14.6745 13.7041 16 15.9999C13.349 15.9999 11.2 18.149 11.2 20.7999C11.2 21.4621 11.3341 22.0929 11.5766 22.6668C9.42081 21.2336 8 18.7827 8 15.9999C8 15.8326 8.00514 15.6665 8.01526 15.5017Z" fill="#1BC47D"/>
<path d="M11.5768 22.6669C11.3343 22.093 11.2002 21.4622 11.2002 20.8C11.2002 18.149 13.3492 16 16.0002 16C14.6747 18.2958 15.4613 21.2314 17.7571 22.5569C18.3311 22.8883 18.945 23.0877 19.5638 23.1644C18.4907 23.6992 17.2806 24 16.0002 24C14.3647 24 12.8438 23.5092 11.5768 22.6669Z" fill="#18A0FB"/>
<path d="M19.5639 23.1644C18.9451 23.0877 18.3312 22.8883 17.7572 22.5569C15.4614 21.2314 14.6748 18.2958 16.0003 16C17.3258 18.2958 20.2614 19.0824 22.5572 17.7569C23.1304 17.426 23.6094 16.9948 23.9851 16.4982C23.8053 19.4236 22.0535 21.9237 19.5639 23.1644Z" fill="#7B61FF"/>
<path d="M23.9847 16.4981C23.6091 16.9947 23.13 17.4259 22.5569 17.7568C20.2611 19.0823 17.3255 18.2957 16 15.9999C18.651 15.9999 20.8 13.8508 20.8 11.1999C20.8 10.5377 20.6659 9.90687 20.4234 9.33301C22.5792 10.7662 24 13.2171 24 15.9999C24 16.1672 23.9949 16.3333 23.9847 16.4981Z" fill="#F24822"/>
<path d="M20.4235 9.33314C20.666 9.907 20.8001 10.5378 20.8001 11.2C20.8001 13.851 18.6511 16 16.0001 16C17.3256 13.7042 16.539 10.7686 14.2432 9.44308C13.6692 9.11171 13.0553 8.91234 12.4365 8.83556C13.5096 8.30079 14.7197 8 16.0001 8C17.6356 8 19.1565 8.49079 20.4235 9.33314Z" fill="#F97F0F"/>
</g>
<defs>
<clipPath id="clip0_1217_109086">
<rect width="16" height="16" fill="white" transform="translate(8 8)"/>
</clipPath>
</defs>
</svg>
