<svg width="32" height="32" viewBox="0 0 32 32" fill="none" xmlns="http://www.w3.org/2000/svg">
<path d="M16.333 16.0002C16.333 14.5274 17.5269 13.3335 18.9997 13.3335V13.3335C20.4724 13.3335 21.6663 14.5274 21.6663 16.0002V16.0002C21.6663 17.4729 20.4724 18.6668 18.9997 18.6668V18.6668C17.5269 18.6668 16.333 17.4729 16.333 16.0002V16.0002Z" fill="#1ABCFE"/>
<path d="M11 21.3332C11 19.8604 12.1939 18.6665 13.6667 18.6665H16.3333V21.3332C16.3333 22.8059 15.1394 23.9998 13.6667 23.9998V23.9998C12.1939 23.9998 11 22.8059 11 21.3332V21.3332Z" fill="#0ACF83"/>
<path d="M16.333 8V13.3333H18.9997C20.4724 13.3333 21.6663 12.1394 21.6663 10.6667V10.6667C21.6663 9.19391 20.4724 8 18.9997 8H16.333Z" fill="#FF7262"/>
<path d="M11 10.6668C11 12.1396 12.1939 13.3335 13.6667 13.3335H16.3333V8.00016H13.6667C12.1939 8.00016 11 9.19407 11 10.6668V10.6668Z" fill="#F24E1E"/>
<path d="M11 15.9998C11 17.4726 12.1939 18.6665 13.6667 18.6665H16.3333V13.3332H13.6667C12.1939 13.3332 11 14.5271 11 15.9998V15.9998Z" fill="#A259FF"/>
</svg>
