<svg width="16" height="16" viewBox="0 0 16 16" fill="none" xmlns="http://www.w3.org/2000/svg">
<path d="M8.99905 0.999895C8.99905 1.55212 8.55138 1.99979 7.99916 1.99979C7.44693 1.99979 6.99926 1.55212 6.99926 0.999895C6.99926 0.447668 7.44693 0 7.99916 0C8.55138 0 8.99905 0.447668 8.99905 0.999895Z" fill="white"/>
<path d="M12.9986 3.99958C13.5509 3.99958 13.9985 3.55191 13.9985 2.99968C13.9985 2.44746 13.5509 1.99979 12.9986 1.99979C12.4464 1.99979 11.9987 2.44746 11.9987 2.99968C11.9987 3.55191 12.4464 3.99958 12.9986 3.99958Z" fill="white"/>
<path d="M3.99958 2.99968C3.99958 3.55191 3.55191 3.99958 2.99968 3.99958C2.44746 3.99958 1.99979 3.55191 1.99979 2.99968C1.99979 2.44746 2.44746 1.99979 2.99968 1.99979C3.55191 1.99979 3.99958 2.44746 3.99958 2.99968Z" fill="white"/>
<path d="M7.99916 13.9985C8.55138 13.9985 8.99905 14.4462 8.99905 14.9984C8.99905 15.5506 8.55138 15.9983 7.99916 15.9983C7.44693 15.9983 6.99926 15.5506 6.99926 14.9984C6.99926 14.4462 7.44693 13.9985 7.99916 13.9985Z" fill="white"/>
<path d="M13.9985 12.9986C13.9985 12.4464 13.5509 11.9987 12.9986 11.9987C12.4464 11.9987 11.9987 12.4464 11.9987 12.9986C11.9987 13.5509 12.4464 13.9985 12.9986 13.9985C13.5509 13.9985 13.9985 13.5509 13.9985 12.9986Z" fill="white"/>
<path d="M2.99968 11.9987C3.55191 11.9987 3.99958 12.4464 3.99958 12.9986C3.99958 13.5509 3.55191 13.9985 2.99968 13.9985C2.44746 13.9985 1.99979 13.5509 1.99979 12.9986C1.99979 12.4464 2.44746 11.9987 2.99968 11.9987Z" fill="white"/>
<path d="M1.99979 7.99916C1.99979 8.55138 1.55212 8.99905 0.999895 8.99905C0.447668 8.99905 0 8.55138 0 7.99916C0 7.44693 0.447668 6.99926 0.999895 6.99926C1.55212 6.99926 1.99979 7.44693 1.99979 7.99916Z" fill="white"/>
<path d="M14.9984 8.99905C15.5506 8.99905 15.9983 8.55138 15.9983 7.99916C15.9983 7.44693 15.5506 6.99926 14.9984 6.99926C14.4462 6.99926 13.9985 7.44693 13.9985 7.99916C13.9985 8.55138 14.4462 8.99905 14.9984 8.99905Z" fill="white"/>
</svg>
