<svg width="32" height="32" viewBox="0 0 32 32" fill="none" xmlns="http://www.w3.org/2000/svg">
<path d="M16.9991 8.99989C16.9991 9.55212 16.5514 9.99979 15.9992 9.99979C15.4469 9.99979 14.9993 9.55212 14.9993 8.99989C14.9993 8.44767 15.4469 8 15.9992 8C16.5514 8 16.9991 8.44767 16.9991 8.99989Z" fill="white"/>
<path fill-rule="evenodd" clip-rule="evenodd" d="M15.9992 19.9987C18.2081 19.9987 19.9987 18.2081 19.9987 15.9992C19.9987 13.7903 18.2081 11.9996 15.9992 11.9996C13.7903 11.9996 11.9996 13.7903 11.9996 15.9992C11.9996 18.2081 13.7903 19.9987 15.9992 19.9987ZM15.9992 17.9989C17.1036 17.9989 17.9989 17.1036 17.9989 15.9992C17.9989 14.8947 17.1036 13.9994 15.9992 13.9994C14.8947 13.9994 13.9994 14.8947 13.9994 15.9992C13.9994 17.1036 14.8947 17.9989 15.9992 17.9989Z" fill="white"/>
<path d="M20.9986 11.9996C21.5509 11.9996 21.9985 11.5519 21.9985 10.9997C21.9985 10.4475 21.5509 9.99979 20.9986 9.99979C20.4464 9.99979 19.9987 10.4475 19.9987 10.9997C19.9987 11.5519 20.4464 11.9996 20.9986 11.9996Z" fill="white"/>
<path d="M11.9996 10.9997C11.9996 11.5519 11.5519 11.9996 10.9997 11.9996C10.4475 11.9996 9.99979 11.5519 9.99979 10.9997C9.99979 10.4475 10.4475 9.99979 10.9997 9.99979C11.5519 9.99979 11.9996 10.4475 11.9996 10.9997Z" fill="white"/>
<path d="M15.9992 21.9985C16.5514 21.9985 16.9991 22.4462 16.9991 22.9984C16.9991 23.5506 16.5514 23.9983 15.9992 23.9983C15.4469 23.9983 14.9993 23.5506 14.9993 22.9984C14.9993 22.4462 15.4469 21.9985 15.9992 21.9985Z" fill="white"/>
<path d="M21.9985 20.9986C21.9985 20.4464 21.5509 19.9987 20.9986 19.9987C20.4464 19.9987 19.9987 20.4464 19.9987 20.9986C19.9987 21.5509 20.4464 21.9985 20.9986 21.9985C21.5509 21.9985 21.9985 21.5509 21.9985 20.9986Z" fill="white"/>
<path d="M10.9997 19.9987C11.5519 19.9987 11.9996 20.4464 11.9996 20.9986C11.9996 21.5509 11.5519 21.9985 10.9997 21.9985C10.4475 21.9985 9.99979 21.5509 9.99979 20.9986C9.99979 20.4464 10.4475 19.9987 10.9997 19.9987Z" fill="white"/>
<path d="M9.99979 15.9992C9.99979 16.5514 9.55212 16.9991 8.99989 16.9991C8.44767 16.9991 8 16.5514 8 15.9992C8 15.4469 8.44767 14.9993 8.99989 14.9993C9.55212 14.9993 9.99979 15.4469 9.99979 15.9992Z" fill="white"/>
<path d="M22.9984 16.9991C23.5506 16.9991 23.9983 16.5514 23.9983 15.9992C23.9983 15.4469 23.5506 14.9993 22.9984 14.9993C22.4462 14.9993 21.9985 15.4469 21.9985 15.9992C21.9985 16.5514 22.4462 16.9991 22.9984 16.9991Z" fill="white"/>
</svg>
