<svg width="32" height="32" viewBox="0 0 32 32" fill="none" xmlns="http://www.w3.org/2000/svg">
<path d="M16 24C16.5217 24 16.9493 23.6163 17.0217 23.0733C17.7391 18.2371 18.3986 17.5638 23.0507 17.0353C23.587 16.9701 24 16.5213 24 16C24 15.4715 23.5942 15.0371 23.058 14.9575C18.4348 14.3131 17.8623 13.7484 17.0217 8.91946C16.9275 8.38371 16.5145 8 16 8C15.471 8 15.0507 8.38371 14.9638 8.9267C14.2609 13.7557 13.6014 14.429 8.95652 14.9575C8.4058 15.0299 8 15.4643 8 16C8 16.5213 8.3913 16.9557 8.94203 17.0353C13.5725 17.6941 14.1377 18.2516 14.9638 23.0805C15.0725 23.6235 15.4928 24 16 24Z" fill="#7B61FF"/>
</svg>
