<svg width="32" height="32" viewBox="0 0 32 32" fill="none" xmlns="http://www.w3.org/2000/svg">
<path fill-rule="evenodd" clip-rule="evenodd" d="M9.018 16.5C9.237 19.604 11.478 22.149 14.433 22.824C13.623 21.499 13.068 19.178 13.006 16.5H9.018ZM16 24C11.582 24 8 20.418 8 16C8 11.582 11.582 8 16 8C20.418 8 24 11.582 24 16C24 20.418 20.418 24 16 24ZM14.434 9.176C11.479 9.851 9.237 12.396 9.018 15.5H13.006C13.068 12.822 13.624 10.5 14.434 9.176ZM17.567 9.176C20.521 9.851 22.763 12.396 22.982 15.5H18.994C18.932 12.822 18.376 10.5 17.567 9.176ZM22.982 16.5H18.994C18.932 19.178 18.376 21.5 17.567 22.824C20.521 22.149 22.763 19.604 22.982 16.5ZM17.185 21.306C17.637 20.1 17.948 18.415 17.994 16.5H14.006C14.052 18.415 14.363 20.1 14.815 21.306C15.062 21.964 15.332 22.427 15.581 22.708C15.831 22.99 15.975 23 16 23C16.026 23 16.17 22.99 16.42 22.708C16.668 22.428 16.938 21.964 17.185 21.306ZM14.815 10.694C14.363 11.899 14.053 13.585 14.006 15.5H17.994C17.948 13.585 17.637 11.9 17.185 10.694C16.938 10.036 16.668 9.573 16.42 9.292C16.17 9.01 16.024 9 16 9C15.975 9 15.83 9.01 15.58 9.292C15.332 9.572 15.062 10.036 14.815 10.694Z" fill="white"/>
</svg>
