<svg width="32" height="32" viewBox="0 0 32 32" fill="none" xmlns="http://www.w3.org/2000/svg">
<rect x="8" y="8" width="16" height="16" rx="4" fill="white"/>
<mask id="path-2-inside-1_1217_109115" fill="white">
<path d="M18.667 12.1667C18.667 11.7985 18.9655 11.5 19.3337 11.5V11.5C19.7018 11.5 20.0003 11.7985 20.0003 12.1667V19.8333C20.0003 20.2015 19.7018 20.5 19.3337 20.5V20.5C18.9655 20.5 18.667 20.2015 18.667 19.8333V12.1667Z"/>
</mask>
<path d="M18.667 12.1667V19.8333H21.3337V12.1667H18.667ZM20.0003 19.8333V12.1667H17.3337V19.8333H20.0003ZM19.3337 19.1667C19.7018 19.1667 20.0003 19.4651 20.0003 19.8333H17.3337C17.3337 20.9379 18.2291 21.8333 19.3337 21.8333V19.1667ZM18.667 19.8333C18.667 19.4651 18.9655 19.1667 19.3337 19.1667V21.8333C20.4382 21.8333 21.3337 20.9379 21.3337 19.8333H18.667ZM19.3337 12.8333C18.9655 12.8333 18.667 12.5349 18.667 12.1667H21.3337C21.3337 11.0621 20.4382 10.1667 19.3337 10.1667V12.8333ZM19.3337 10.1667C18.2291 10.1667 17.3337 11.0621 17.3337 12.1667H20.0003C20.0003 12.5349 19.7018 12.8333 19.3337 12.8333V10.1667Z" fill="black" mask="url(#path-2-inside-1_1217_109115)"/>
<path fill-rule="evenodd" clip-rule="evenodd" d="M12 12.1667C12 11.7985 12.2985 11.5 12.6667 11.5C13.0349 11.5 13.3333 11.7985 13.3333 12.1667V12.8333H12V12.1667ZM16 12.8334C16 13.5697 15.403 14.1667 14.6667 14.1667C13.9303 14.1667 13.3333 13.5697 13.3333 12.8334H12C12 14.3061 13.1939 15.5 14.6667 15.5C16.1394 15.5 17.3333 14.3061 17.3333 12.8334H16ZM16.6667 11.5C16.2985 11.5 16 11.7985 16 12.1667V12.8333H17.3333V12.1667C17.3333 11.7985 17.0349 11.5 16.6667 11.5Z" fill="black"/>
<path fill-rule="evenodd" clip-rule="evenodd" d="M12 19.8333C12 20.2015 12.2985 20.5 12.6667 20.5C13.0349 20.5 13.3333 20.2015 13.3333 19.8333V19.1667H12V19.8333ZM16 19.1666C16 18.4303 15.403 17.8333 14.6667 17.8333C13.9303 17.8333 13.3333 18.4303 13.3333 19.1666H12C12 17.6939 13.1939 16.5 14.6667 16.5C16.1394 16.5 17.3333 17.6939 17.3333 19.1666H16ZM16.6667 20.5C16.2985 20.5 16 20.2015 16 19.8333V19.1667H17.3333V19.8333C17.3333 20.2015 17.0349 20.5 16.6667 20.5Z" fill="black"/>
</svg>
